<svg xmlns="http://www.w3.org/2000/svg" width="64" height="64" viewBox="0 0 64 64">
  <g id="icon" transform="translate(-968 -3644)">
    <g id="Ellipse_206" data-name="Ellipse 206" transform="translate(968 3644)" fill="rgba(255,255,255,0)" stroke="#231f20" stroke-width="1">
      <circle cx="32" cy="32" r="32" stroke="none"/>
      <circle cx="32" cy="32" r="31.5" fill="none"/>
    </g>
    <path id="quality-box" d="M23.99,19.048a1.591,1.591,0,0,0-.454-.951l-3.564-3.564a1.55,1.55,0,0,1,.533-1.831,3.218,3.218,0,0,0,0-5.4A1.331,1.331,0,0,1,19.9,5.9a3.214,3.214,0,0,0-.055-1.63A3.152,3.152,0,0,0,17.7,2.127a3.234,3.234,0,0,0-1.629-.055,1.328,1.328,0,0,1-1.4-.6A3.246,3.246,0,0,0,13.506.388a3.157,3.157,0,0,0-3.036,0A3.253,3.253,0,0,0,9.3,1.472a1.327,1.327,0,0,1-1.4.6,3.217,3.217,0,0,0-1.628.055A3.151,3.151,0,0,0,4.128,4.272,3.226,3.226,0,0,0,4.073,5.9a1.33,1.33,0,0,1-.6,1.4,3.218,3.218,0,0,0,0,5.4A1.568,1.568,0,0,1,4,14.551L.463,18.1A1.594,1.594,0,0,0,1.419,20.8l1.6.177.177,1.584A1.627,1.627,0,0,0,4.782,24,1.569,1.569,0,0,0,5.9,23.532l4.171-4.176a3.163,3.163,0,0,0,3.839-.008l4.179,4.18A1.577,1.577,0,0,0,19.22,24a1.629,1.629,0,0,0,1.588-1.429l.177-1.59,1.6-.177a1.594,1.594,0,0,0,1.409-1.757Zm-18.8,3.781a.577.577,0,0,1-.614.134.593.593,0,0,1-.392-.5l-.265-2.384-2.394-.265A.594.594,0,0,1,1.17,18.8l2.984-2.988a3.155,3.155,0,0,0,2.12,2.058,3.232,3.232,0,0,0,1.629.055,1.371,1.371,0,0,1,1.472.713L5.192,22.83Zm8.644-4.842a2.24,2.24,0,0,1-.814.75,2.163,2.163,0,0,1-2.067,0,2.246,2.246,0,0,1-.816-.75A2.355,2.355,0,0,0,8.173,16.9a3.926,3.926,0,0,1-1.623.015,2.177,2.177,0,0,1-1.461-1.462,2.26,2.26,0,0,1-.041-1.132,2.332,2.332,0,0,0-1.032-2.457,2.218,2.218,0,0,1,0-3.724A2.332,2.332,0,0,0,5.048,5.68a2.261,2.261,0,0,1,.041-1.132A2.178,2.178,0,0,1,6.55,3.087a2.256,2.256,0,0,1,1.131-.041,2.329,2.329,0,0,0,2.458-1.032,2.257,2.257,0,0,1,.816-.751,2.168,2.168,0,0,1,2.067,0,2.229,2.229,0,0,1,.815.751,2.328,2.328,0,0,0,2.458,1.032,2.284,2.284,0,0,1,1.132.041,2.177,2.177,0,0,1,1.461,1.462,2.257,2.257,0,0,1,.041,1.131,2.332,2.332,0,0,0,1.032,2.458,2.218,2.218,0,0,1,0,3.724,2.33,2.33,0,0,0-1.033,2.458,2.261,2.261,0,0,1-.041,1.132,2.178,2.178,0,0,1-1.461,1.461,2.281,2.281,0,0,1-1.131.041A2.342,2.342,0,0,0,13.836,17.987Zm9.032,1.6a.59.59,0,0,1-.4.219l-2.394.265-.265,2.39a.6.6,0,0,1-.4.5.581.581,0,0,1-.613-.14L14.609,18.63a1.369,1.369,0,0,1,1.466-.7,3.252,3.252,0,0,0,1.628-.055A3.157,3.157,0,0,0,19.827,15.8l3,3a.6.6,0,0,1,.041.789ZM17,7.048,11.994,4.22,7,7.048v5.813l5,2.856,5-2.777Zm-5.5,7.234-3.5-2V8.128l3.5,2ZM8.575,7.3,12,5.368l3.429,1.938L12,9.263ZM16,12.351,12.5,14.3V10.13l3.5-2Z" transform="translate(988 3664.001)"/>
  </g>
</svg>
